<?xml version="1.0" standalone="no"?>
<!DOCTYPE svg PUBLIC "-//W3C//DTD SVG 20010904//EN"
 "http://www.w3.org/TR/2001/REC-SVG-20010904/DTD/svg10.dtd">
<svg version="1.0" xmlns="http://www.w3.org/2000/svg"
 width="319.000000pt" height="76.000000pt" viewBox="0 0 319.000000 76.000000"
 preserveAspectRatio="xMidYMid meet">
<metadata>
Created by potrace 1.16, written by Peter Selinger 2001-2019
</metadata>
<g transform="translate(0.000000,76.000000) scale(0.100000,-0.100000)"
fill="#000000" stroke="none">
<path d="M1477 613 c-4 -3 -7 -37 -7 -75 l0 -69 -27 3 c-24 3 -29 9 -37 46
l-10 42 -47 0 c-49 0 -59 -10 -59 -67 0 -14 -6 -23 -15 -23 -8 0 -15 -6 -15
-14 0 -26 -15 -26 -65 -1 -75 38 -150 28 -205 -27 l-31 -31 -33 36 c-34 38
-86 55 -127 42 -13 -4 -48 -8 -79 -9 l-55 -1 0 -130 0 -130 50 0 50 0 5 79 c4
62 9 81 23 90 31 19 47 -17 47 -101 l0 -74 53 3 c48 3 52 5 55 31 2 15 5 27 7
27 3 0 24 -13 47 -30 89 -62 203 -44 251 41 23 41 37 50 37 23 0 -32 32 -82
61 -94 18 -8 42 -9 66 -5 21 5 66 7 100 6 l62 -3 7 51 c4 28 11 54 17 58 5 3
32 -20 59 -51 l50 -56 70 0 c66 0 70 1 65 20 l-5 21 33 -21 c69 -42 184 -34
224 16 11 14 23 45 27 70 9 60 30 57 37 -5 7 -60 23 -87 59 -102 33 -14 97 -4
104 16 9 21 -16 85 -32 85 -10 0 -14 12 -14 40 0 33 4 40 19 40 11 0 21 9 25
23 8 34 -4 67 -25 67 -13 0 -19 11 -25 45 l-6 45 -48 0 c-51 0 -60 -10 -60
-67 0 -25 -3 -26 -86 -23 -50 1 -51 1 -58 -31 -3 -17 -6 -55 -6 -84 0 -55 -13
-71 -45 -59 -11 5 -15 22 -15 68 0 99 -4 106 -61 106 l-49 0 -2 -72 c0 -40 0
-85 1 -100 1 -14 -2 -29 -8 -32 -9 -6 -151 138 -151 153 0 4 34 47 75 96 41
49 72 92 69 97 -3 4 -32 8 -64 8 -58 0 -59 0 -101 -50 -57 -67 -61 -66 -74 13
-6 37 -6 37 -54 37 -26 0 -51 -3 -54 -7z"/>
</g>
</svg>
